<svg xmlns="http://www.w3.org/2000/svg" width="19.822" height="14.796" viewBox="0 0 19.822 14.796">
    <g data-name="Group 66566">
        <path data-name="Path 14010" d="M166.836 1373.062c.074-.034.052-.11.063-.165a3.171 3.171 0 0 1 1.33-2.035 18.514 18.514 0 0 1 5.21-2.569 10.517 10.517 0 0 1 4.08-.448 13.042 13.042 0 0 1 3.7.967 19.208 19.208 0 0 1 3.711 2.03 3.267 3.267 0 0 1 .163 5.278l-.134.107c-.182.147-.433.26-.527.451a1.666 1.666 0 0 0-.023.676c0 .273-.019.548 0 .819a2.918 2.918 0 0 1-.449 1.72 4.443 4.443 0 0 1-4 2.387c-2.268.031-4.536.016-6.8 0a4.58 4.58 0 0 1-4.344-3.394 1.232 1.232 0 0 1-.039-.319v-1.753a.3.3 0 0 0-.134-.267 8.394 8.394 0 0 1-.868-.712 3.252 3.252 0 0 1-.9-1.766c-.006-.035.008-.079-.041-.1zm9.747 2.745h6.155a2.766 2.766 0 0 0 .888-.023 2.981 2.981 0 0 0 .744-.55 2.123 2.123 0 0 0-.106-3.466 18.3 18.3 0 0 0-4.044-2.123 9.736 9.736 0 0 0-6.288-.311 17.316 17.316 0 0 0-5.062 2.477 2.115 2.115 0 0 0-.127 3.358c.218.184.451.35.67.533a.446.446 0 0 0 .31.107q3.43-.009 6.86-.002zm-6.42 3.436a3.362 3.362 0 0 0 2.98 1.887c2.286.037 4.573.029 6.858 0a3.322 3.322 0 0 0 2.906-1.693c.037-.059.094-.116.081-.2zm6.432-1.15h6.518c.122 0 .162-.027.157-.154a7.747 7.747 0 0 1 0-.781c.011-.173-.041-.215-.214-.215q-6.46.008-12.921 0a.511.511 0 0 1-.076 0c-.107-.016-.141.025-.138.134.008.273.013.547 0 .819-.009.16.037.2.2.195q3.234-.002 6.473.003z" transform="translate(-166.686 -1367.65)" style="fill:#fff;stroke:#fff;stroke-width:.3px"/>
        <path data-name="Path 14011" d="M321.436 1415.933a2.773 2.773 0 0 1-.521 1.921 2.647 2.647 0 0 1-1.318.924.931.931 0 0 1-.63-.041 2.585 2.585 0 0 1-1.723-2.392c-.005-.3 0-.609 0-.914a.563.563 0 0 1 .385-.574c.5-.192 1.007-.378 1.51-.568a.632.632 0 0 1 .464.019c.468.176.937.349 1.4.527a.584.584 0 0 1 .43.621c.004.159.003.318.003.477zm-1.144.175c0-.317 0-.317-.346-.447a.735.735 0 0 1-.124-.047.909.909 0 0 0-.964 0c-.147.081-.378.072-.451.2a1.059 1.059 0 0 0-.02.505 1.426 1.426 0 0 0 .782 1.261.322.322 0 0 0 .352-.007 1.488 1.488 0 0 0 .772-1.465z" transform="translate(-309.431 -1411.738)" style="fill:#fff;stroke:#fff;stroke-width:.3px"/>
    </g>
</svg>
