<svg xmlns="http://www.w3.org/2000/svg" width="146.005" height="108.791" viewBox="0 0 146.005 108.791">
    <path data-name="Rectangle 1999" transform="translate(0 95.604)" style="fill:#ebebeb" d="M0 0h146.005v.073H0z"/>
    <path data-name="Rectangle 2000" transform="translate(121.704 100.302)" style="fill:#ebebeb" d="M0 0h9.671v.073H0z"/>
    <path data-name="Rectangle 2001" transform="translate(94.182 101.097)" style="fill:#ebebeb" d="M0 0h2.538v.073H0z"/>
    <path data-name="Rectangle 2002" transform="translate(115.808 97.592)" style="fill:#ebebeb" d="M0 0h5.604v.073H0z"/>
    <path data-name="Rectangle 2003" transform="translate(15.319 98.083)" style="fill:#ebebeb" d="M0 0h12.612v.073H0z"/>
    <path data-name="Rectangle 2004" transform="translate(30.533 98.083)" style="fill:#ebebeb" d="M0 0h1.848v.073H0z"/>
    <path data-name="Rectangle 2005" transform="translate(38.39 99.315)" style="fill:#ebebeb" d="M0 0h27.355v.073H0z"/>
    <path data-name="Path 14013" d="M96.259 137.58H39.874a1.667 1.667 0 0 1-1.664-1.667v-79.26A1.667 1.667 0 0 1 39.874 55h56.385a1.667 1.667 0 0 1 1.667 1.667v79.246a1.667 1.667 0 0 1-1.667 1.667zM39.874 55.058a1.594 1.594 0 0 0-1.591 1.594v79.26a1.594 1.594 0 0 0 1.591 1.594h56.385a1.6 1.6 0 0 0 1.594-1.594V56.653a1.6 1.6 0 0 0-1.594-1.594z" transform="translate(-27.052 -55)" style="fill:#ebebeb"/>
    <path data-name="Path 14014" d="M312.554 137.58h-56.387a1.67 1.67 0 0 1-1.667-1.667v-79.26A1.67 1.67 0 0 1 256.167 55h56.387a1.667 1.667 0 0 1 1.661 1.653v79.26a1.667 1.667 0 0 1-1.661 1.667zm-56.387-82.522a1.6 1.6 0 0 0-1.594 1.594v79.26a1.6 1.6 0 0 0 1.594 1.594h56.387a1.6 1.6 0 0 0 1.594-1.594V56.653a1.6 1.6 0 0 0-1.594-1.594z" transform="translate(-180.184 -55)" style="fill:#ebebeb"/>
    <path data-name="Rectangle 2006" transform="translate(29.578 6.179)" style="fill:#e6e6e6" d="M0 0h85.205v39.865H0z"/>
    <path data-name="Rectangle 2007" transform="translate(30.176 6.179)" style="fill:#f0f0f0" d="M0 0h85.889v39.865H0z"/>
    <path data-name="Rectangle 2008" transform="translate(29.578 46.044)" style="fill:#e6e6e6" d="M0 0h85.205v2.032H0z"/>
    <path data-name="Rectangle 2009" transform="translate(32.314 46.044)" style="fill:#f0f0f0" d="M0 0h85.889v2.032H0z"/>
    <path data-name="Rectangle 2010" transform="rotate(90 53.146 61.124)" style="fill:#fafafa" d="M0 0h36.27v82.294H0z"/>
    <path data-name="Path 14015" d="m139.73 118.59 5-36.27h7.805l-5 36.27z" transform="translate(-98.928 -74.342)" style="fill:#fff"/>
    <path data-name="Path 14016" d="M112.028 119.321a.128.128 0 0 1-.128-.128V86.008a.128.128 0 1 1 .257 0v33.2a.126.126 0 0 1-.129.113z" transform="translate(-79.224 -76.863)" style="fill:#f0f0f0"/>
    <path data-name="Path 14017" d="m172.2 118.59 5-36.27h3.043l-5 36.27z" transform="translate(-121.916 -74.342)" style="fill:#fff"/>
    <path data-name="Rectangle 2011" transform="rotate(90 53.146 61.124)" style="fill:#e6e6e6" d="M0 0h36.27v.228H0z"/>
    <path data-name="Path 14018" d="M191.939 86.722h-85.2l-.166-2.012h85.205z" transform="translate(-75.451 -76.034)" style="opacity:.6;fill:#ebebeb"/>
    <path data-name="Path 14019" d="M191.939 98.012h-85.2L106.57 96h85.205z" transform="translate(-75.451 -84.028)" style="opacity:.6;fill:#ebebeb"/>
    <path data-name="Path 14020" d="M191.939 109.312h-85.2l-.166-2.012h85.205z" transform="translate(-75.451 -92.028)" style="opacity:.6;fill:#ebebeb"/>
    <path data-name="Path 14021" d="M191.939 120.6h-85.2l-.166-2.012h85.205z" transform="translate(-75.451 -100.021)" style="opacity:.6;fill:#ebebeb"/>
    <path data-name="Path 14022" d="M191.939 131.9h-85.2l-.166-2.012h85.205z" transform="translate(-75.451 -108.021)" style="opacity:.6;fill:#ebebeb"/>
    <path data-name="Path 14023" d="M191.939 143.192h-85.2l-.166-2.012h85.205z" transform="translate(-75.451 -116.015)" style="opacity:.6;fill:#ebebeb"/>
    <path data-name="Rectangle 2012" transform="translate(115.189 56.066)" style="fill:#e6e6e6" d="M0 0h13.003v39.538H0z"/>
    <path data-name="Path 14024" d="M418.281 369.168h3.472v-5.458h-7.113z" transform="translate(-293.561 -273.564)" style="fill:#fafafa"/>
    <path data-name="Rectangle 2013" transform="translate(79.736 56.066)" style="fill:#e6e6e6" d="M0 0h13.003v39.538H0z"/>
    <path data-name="Rectangle 2014" transform="translate(89.708 56.066)" style="fill:#fafafa" d="M0 0h38.484v37.66H0z"/>
    <path data-name="Path 14025" d="M310.682 369.168h-3.472v-5.458h7.113z" transform="translate(-217.502 -273.564)" style="fill:#fafafa"/>
    <path data-name="Rectangle 2015" transform="translate(92.401 70.1)" style="fill:#f0f0f0" d="M0 0h33.096v9.423H0z"/>
    <path data-name="Rectangle 2016" transform="translate(92.401 81.538)" style="fill:#f0f0f0" d="M0 0h33.096v9.423H0z"/>
    <path data-name="Path 14026" d="M334.24 292.26h22.707v.458a1.364 1.364 0 0 1-1.364 1.364h-19.976a1.364 1.364 0 0 1-1.364-1.364v-.458z" transform="translate(-236.639 -222.978)" style="fill:#fafafa"/>
    <path data-name="Rectangle 2017" transform="translate(92.401 58.659)" style="fill:#f0f0f0" d="M0 0h33.096v9.423H0z"/>
    <path data-name="Path 14027" d="M334.24 253.09h22.707v.458a1.364 1.364 0 0 1-1.364 1.364h-19.976a1.364 1.364 0 0 1-1.364-1.364v-.458z" transform="translate(-236.639 -195.246)" style="fill:#fafafa"/>
    <path data-name="Path 14028" d="M334.24 331.43h22.707v.458a1.364 1.364 0 0 1-1.364 1.364h-19.976a1.364 1.364 0 0 1-1.364-1.364v-.458z" transform="translate(-236.639 -250.71)" style="fill:#fafafa"/>
    <path data-name="Path 14029" d="M44.395 170.19c.724-2.082 6.424.748 8.76 4.193a17.8 17.8 0 0 1 2.92 8.036c-.053-3.755-.111-7.788-.169-11.6-.47-.949-1.542-3.139-2.31-4.874-2.57-5.788-8.679-7.943-10.8-11.6-2.765-4.789-2.748-11.972-.394-14.56 2.044-2.254 8.819 12.974 9.584 14.676a45.02 45.02 0 0 1 3.878 14.4c-.055-3.577-.108-6.859-.152-9.394-.143-8.264-.324-10.921-.406-11.739-.292-.4-.616-.876-.812-1.115-1.638-2.111-5.277-4.622-7.093-7.692-2.654-4.479-2.225-9.841-.365-11.838 1.962-2.088 5.417 2.835 7.23 7.735s1.045 9.566 1.559 13.628c.108.794.216 3.819.321 8.016.555-4.514 1.659-7.54 3.7-10.358 2.517-3.466 4.69-7.686 6.763-7.14s.958 6.132-.683 10.051c-1.46 3.49-8.667 6.973-9.73 9.779.126 5.688.237 12.892.318 19.6.567-3.466.175-3.755 2.505-9.052 1.384-3.154 7.058-7.04 7.735-4.874s-.353 6.261-2.494 9.128c-1.729 2.316-5.548 2.313-6.45 3.746-.207.336-.876 1.621-1.282 2.357.091 8.191.134 15.418.088 17.883l-.374.026c.02-.637-.026-4.8-.1-10.317-.932-2.92-7.2-4.643-9.134-7.694-2.026-3.187-3.483-6.913-2.613-9.407z" transform="translate(-28.796 -105.694)" style="fill:#e6e6e6"/>
    <path data-name="Path 14030" d="M68.219 369.507H80.25a1.384 1.384 0 0 0 1.35-1.107l.853-4.211H66l.876 4.211a1.384 1.384 0 0 0 1.343 1.107z" transform="translate(-46.727 -273.904)" style="fill:#f0f0f0"/>
    <path data-name="Path 14031" d="M62.052 358.318h17.135a.809.809 0 0 0 .8-.718l.35-3.113a.809.809 0 0 0-.8-.9H61.7a.809.809 0 0 0-.8.9l.35 3.113a.809.809 0 0 0 .8.718z" transform="translate(-43.112 -266.399)" style="fill:#f0f0f0"/>
    <path data-name="Rectangle 2018" transform="translate(41.649 76.688)" style="fill:#e0e0e0" d="M0 0h10.282v18.916H0z"/>
    <path data-name="Path 14032" d="M175.343 320.168h-34.425L137.3 294.5h34.425z" transform="translate(-97.207 -224.564)" style="fill:#e6e6e6"/>
    <path data-name="Path 14033" d="M183.686 320.168h-38.081L141.99 294.5h38.078z" transform="translate(-100.528 -224.564)" style="fill:#f0f0f0"/>
    <path data-name="Path 14034" d="M159.746 325.883 156.7 308.24h30.057l3.046 17.643z" transform="translate(-110.942 -234.292)" style="fill:#fff"/>
    <path data-name="Path 14035" d="M186.594 325.883 176.38 308.24h3.2l10.22 17.643z" transform="translate(-124.875 -234.292)" style="fill:#fafafa"/>
    <path data-name="Path 14036" d="M202.217 325.883 192 308.24h5.466l10.214 17.643z" transform="translate(-135.934 -234.292)" style="fill:#fafafa"/>
    <g transform="translate(16.385 102.18)">
        <ellipse cx="56.618" cy="3.306" rx="56.618" ry="3.306" style="fill:#f5f5f5"/>
    </g>
    <g>
        <path data-name="Path 14037" d="M75.393 202.038a.126.126 0 0 1-.126-.114l-.648-7.8a.123.123 0 0 1 .111-.128.126.126 0 0 1 .134.114l.648 7.8a.126.126 0 0 1-.114.134z" transform="translate(-52.829 -153.41)" style="fill:#407bff"/>
        <path data-name="Path 14038" d="M77.81 231.066a.126.126 0 0 1-.126-.114l-.2-2.359a.125.125 0 1 1 .248-.02l.2 2.359a.126.126 0 0 1-.114.134z" transform="translate(-54.86 -177.806)" style="fill:#407bff"/>
        <path data-name="Path 14039" d="M141.767 200.834H81.473a3.1 3.1 0 0 1-3.028-2.8l-3.4-40.82a2.54 2.54 0 0 1 2.564-2.8H137.9a3.107 3.107 0 0 1 3.031 2.8l3.4 40.814a2.543 2.543 0 0 1-2.564 2.8z" transform="translate(-53.124 -125.388)" style="fill:#fff"/>
        <path data-name="Path 14040" d="M141.488 200.654H81.194a3.212 3.212 0 0 1-3.145-2.9l-3.4-40.817a2.687 2.687 0 0 1 .692-2.059 2.657 2.657 0 0 1 1.992-.878h60.291a3.212 3.212 0 0 1 3.148 2.92l3.393 40.814a2.654 2.654 0 0 1-2.678 2.92zm-64.155-46.409a2.424 2.424 0 0 0-2.45 2.675l3.4 40.811a2.984 2.984 0 0 0 2.92 2.689h60.288a2.424 2.424 0 0 0 2.447-2.669l-3.4-40.817a2.981 2.981 0 0 0-2.92-2.689z" transform="translate(-52.845 -125.091)" style="fill:#407bff"/>
        <path data-name="Path 14041" d="M137.9 154.439H77.614a2.54 2.54 0 0 0-2.564 2.792h65.886a3.107 3.107 0 0 0-3.036-2.792z" transform="translate(-53.125 -125.402)" style="fill:#407bff"/>
        <path data-name="Path 14042" d="M85.759 157.764a.546.546 0 0 1-.552.6.672.672 0 0 1-.654-.6.549.549 0 0 1 .552-.6.666.666 0 0 1 .654.6z" transform="translate(-59.86 -127.328)" style="fill:#fff"/>
        <path data-name="Path 14043" d="M94.187 157.764a.546.546 0 0 1-.552.6.672.672 0 0 1-.642-.6.549.549 0 0 1 .552-.6.666.666 0 0 1 .642.6z" transform="translate(-65.836 -127.328)" style="fill:#fff"/>
        <path data-name="Path 14044" d="M102.559 157.764a.546.546 0 0 1-.552.6.672.672 0 0 1-.654-.6.549.549 0 0 1 .552-.6.666.666 0 0 1 .654.6z" transform="translate(-71.755 -127.328)" style="fill:#fff"/>
        <path data-name="Path 14045" d="M151.062 215.287h-50.7a2.467 2.467 0 0 1-2.409-2.222l-2.383-28.453a2.021 2.021 0 0 1 2.044-2.222h50.713a2.467 2.467 0 0 1 2.409 2.222l2.364 28.468a2.021 2.021 0 0 1-2.038 2.208z" transform="translate(-67.652 -145.19)" style="fill:#f0f0f0"/>
        <path data-name="Path 14046" d="M191.313 195.456 175.6 214.372a4.494 4.494 0 0 0 2.505 7.265l25.492 5.51a4.494 4.494 0 0 0 5.125-6.062l-9.774-24.43a4.494 4.494 0 0 0-7.639-1.2z" transform="translate(-123.59 -153.286)" style="opacity:.1;fill:#263238"/>
        <path data-name="Path 14047" d="M98.477 204 93 218.749a2.838 2.838 0 0 0 2.938 3.8l15.982-1.568a2.838 2.838 0 0 0 1.942-4.6l-10.512-13.17a2.838 2.838 0 0 0-4.877.788z" transform="translate(-65.725 -159.179)" style="opacity:.1;fill:#263238"/>
        <path data-name="Path 14048" d="m212.846 178.128-14.688 21.317a4.725 4.725 0 0 0 3.271 7.364l27 3.595a4.725 4.725 0 0 0 4.859-6.778l-12.311-24.92a4.725 4.725 0 0 0-8.13-.578z" transform="translate(-139.703 -140.722)" style="fill:#407bff"/>
        <path data-name="Path 14049" d="M207.3 209.866a2.984 2.984 0 0 1-2.284-1.656 2.628 2.628 0 0 1 .137-2.686l14.726-21.381a2.476 2.476 0 0 1 2.421-1.028 2.979 2.979 0 0 1 2.284 1.656l12.334 24.981a2.628 2.628 0 0 1-.137 2.687 2.473 2.473 0 0 1-2.421 1.031z" transform="translate(-144.93 -145.682)" style="fill:#fff"/>
        <path data-name="Path 14050" d="m255.266 209.013 1.72.228a2.21 2.21 0 0 1 1.9 2.248l-.117 2.243a1.661 1.661 0 0 1-.026.242l-1.224 6.76a1.819 1.819 0 0 1-2.076 1.46 2.222 2.222 0 0 1-1.9-2.006l-.493-6.985a1.686 1.686 0 0 1 0-.242l.114-2.246a1.813 1.813 0 0 1 2.1-1.7zm-.137 15.056.467.061a1.98 1.98 0 0 1 1.7 2.012 1.627 1.627 0 0 1-1.883 1.533l-.467-.064a1.977 1.977 0 0 1-1.7-2.009 1.624 1.624 0 0 1 1.883-1.533z" transform="translate(-179.153 -164.023)" style="fill:#407bff"/>
        <path data-name="Path 14051" d="m121.5 189.112-4.034 15.288a2.838 2.838 0 0 0 3.291 3.5l15.643-3.051a2.838 2.838 0 0 0 1.516-4.725l-11.6-12.25a2.841 2.841 0 0 0-4.818 1.229z" transform="translate(-83.099 -148.446)" style="fill:#407bff"/>
        <path data-name="Path 14052" d="M123.829 209.415a1.732 1.732 0 0 1-1.583-.531 1.7 1.7 0 0 1-.438-1.6l4.041-15.333a1.46 1.46 0 0 1 1.145-1.066 1.734 1.734 0 0 1 1.583.534l11.639 12.264a1.7 1.7 0 0 1 .441 1.6 1.46 1.46 0 0 1-1.145 1.063z" transform="translate(-86.203 -151.186)" style="fill:#fff"/>
        <path data-name="Path 14053" d="m140.109 206.414 1-.2a1.32 1.32 0 0 1 1.483.955l.356 1.334a1.357 1.357 0 0 1 .032.149l.634 4.2a1.089 1.089 0 0 1-.876 1.259 1.314 1.314 0 0 1-1.437-.812l-1.618-3.995a1.168 1.168 0 0 1-.05-.143l-.368-1.337a1.1 1.1 0 0 1 .847-1.416zm2.818 8.842.272-.053a1.168 1.168 0 0 1 1.329.853.981.981 0 0 1-.748 1.256l-.272.053a1.168 1.168 0 0 1-1.329-.85.984.984 0 0 1 .748-1.259z" transform="translate(-98.558 -162.049)" style="fill:#407bff"/>
    </g>
    <g>
        <path data-name="Path 14054" d="m382.866 206-2.266.736 1.822 2.155a6.9 6.9 0 0 0 1.329-1.551.721.721 0 0 0-.257-.978z" transform="translate(-269.461 -161.906)" style="fill:#7f3e3b"/>
        <path data-name="Path 14055" d="m377.03 210.33 1.358 1.65 1.51-1.264-1.825-2.155z" transform="translate(-266.934 -163.719)" style="fill:#7f3e3b"/>
        <path data-name="Path 14056" d="M382.82 145.68c.552 1.518 1.06 3.037 1.542 4.576s.926 3.084 1.314 4.7l.137.622.064.324.032.164v.1l.018.123a5.12 5.12 0 0 1-.082 1.664A12.231 12.231 0 0 1 385 160.5a23.972 23.972 0 0 1-2.5 4.322l-1.516-.838c.537-1.46 1.069-2.952 1.46-4.4a12.328 12.328 0 0 0 .4-2.07 2.448 2.448 0 0 0-.035-.724l-.126-.456-.163-.54c-.458-1.46-.981-2.964-1.5-4.459s-1.034-3-1.53-4.5z" transform="translate(-268.683 -119.2)" style="fill:#7f3e3b"/>
        <path data-name="Path 14057" d="M346.59 114.03c.038.184-.026.353-.143.385s-.245-.1-.292-.292.023-.353.143-.383.254.109.292.29z" transform="translate(-245.064 -96.585)" style="fill:#263238"/>
        <path data-name="Path 14058" d="M346.361 115.94a7.07 7.07 0 0 1-.531 1.772 1.045 1.045 0 0 0 .894-.053z" transform="translate(-244.845 -98.145)" style="fill:#630f0f"/>
        <path data-name="Path 14059" d="M345.731 110.127a.111.111 0 0 1-.091-.047.108.108 0 0 1 .026-.152 1.08 1.08 0 0 1 .99-.076.108.108 0 0 1 .058.143.111.111 0 0 1-.143.061.847.847 0 0 0-.78.05.1.1 0 0 1-.06.021z" transform="translate(-244.696 -93.774)" style="fill:#263238"/>
        <path data-name="Path 14060" d="M356.1 116.72c.2 2.12-.1 4.173.377 6.015 0 0-.526 1.711-3.659 1.711-3.446 0-1.58-1.711-1.58-1.711 1.9-.447 1.9-1.843 1.626-3.154z" transform="translate(-248.316 -98.697)" style="fill:#7f3e3b"/>
        <path data-name="Path 14061" d="M357.916 135.266c.269-.54.447-1.308-.108-1.5a14.011 14.011 0 0 0-5.055.117 1.25 1.25 0 0 0-.9 1.5z" transform="translate(-249.087 -110.641)" style="fill:#263238"/>
        <path data-name="Path 14062" d="M395.1 401.358a2.852 2.852 0 0 0 .619-.239.061.061 0 0 0 .035-.055.055.055 0 0 0-.041-.053c-.1-.035-1.007-.336-1.247-.131a.193.193 0 0 0-.061.187.359.359 0 0 0 .193.292.768.768 0 0 0 .502-.001zm.432-.292a1.2 1.2 0 0 1-.876.161.231.231 0 0 1-.129-.193.07.07 0 0 1 .02-.076c.12-.093.61.009.984.12z" transform="translate(-279.235 -299.829)" style="fill:#407bff"/>
        <path data-name="Path 14063" d="M396.564 399.49a.061.061 0 0 0 .044-.076c0-.029-.237-.724-.584-.876a.327.327 0 0 0-.266-.018.193.193 0 0 0-.149.2c0 .292.631.707.917.785zm-.73-.876a.216.216 0 0 1 .146.018 1.44 1.44 0 0 1 .47.7c-.292-.131-.707-.464-.712-.634 0-.015 0-.05.07-.079z" transform="translate(-280.088 -298.195)" style="fill:#407bff"/>
        <path data-name="Path 14064" d="M340.7 407.251a3.046 3.046 0 0 0 .657-.091.06.06 0 0 0 .018-.111c-.091-.055-.9-.555-1.183-.412a.187.187 0 0 0-.1.169.368.368 0 0 0 .123.315.788.788 0 0 0 .485.13zm.485-.175a1.212 1.212 0 0 1-.894-.047.24.24 0 0 1-.082-.216.067.067 0 0 1 .038-.07c.143-.073.607.14.937.333z" transform="translate(-240.776 -303.938)" style="fill:#407bff"/>
        <path data-name="Path 14065" d="M342.58 405.749a.078.078 0 0 0 .035 0 .064.064 0 0 0 .026-.055c0-.029-.064-.756-.356-1a.315.315 0 0 0-.254-.076.193.193 0 0 0-.19.155c-.053.292.45.832.713.975zm-.508-1.019a.2.2 0 0 1 .137.05 1.428 1.428 0 0 1 .292.791c-.26-.2-.584-.613-.549-.78 0 0 0-.053.088-.061h.026z" transform="translate(-242.017 -302.527)" style="fill:#407bff"/>
        <path data-name="Path 14066" d="M348.02 395.238h-2.307l-.023-5.338H348z" transform="translate(-244.745 -292.106)" style="fill:#7f3e3b"/>
        <path data-name="Path 14067" d="m399.421 388.683-2.219.406-1.591-5.253 2.219-.406z" transform="translate(-280.088 -287.525)" style="fill:#7f3e3b"/>
        <path data-name="Path 14068" d="m392 399.36 2.52-.584a.193.193 0 0 1 .222.108l.835 1.907a.353.353 0 0 1-.248.482c-.876.193-1.32.239-2.43.5-.68.161-2.07.566-3.014.788s-1.247-.689-.876-.876a5.893 5.893 0 0 0 2.654-2.1.584.584 0 0 1 .337-.225z" transform="translate(-275.305 -298.386)" style="fill:#263238"/>
        <path data-name="Path 14069" d="M333.843 407.26h2.517a.193.193 0 0 1 .19.158l.377 2.044a.347.347 0 0 1-.347.409c-.908-.015-2.216-.067-3.358-.067-1.334 0-1.81.073-3.376.073-.946 0-1.168-.958-.771-1.042a10.967 10.967 0 0 0 4.208-1.4 1.089 1.089 0 0 1 .56-.175z" transform="translate(-232.849 -304.396)" style="fill:#263238"/>
        <path data-name="Path 14070" d="M378.494 138.591c2.152 1.516 2.8 5.417 2.8 5.417l-4.877 2.47a23.267 23.267 0 0 1-1.781-4.839c-.522-2.306 2.328-4.122 3.858-3.048z" transform="translate(-265.195 -113.957)" style="fill:#407bff"/>
        <path data-name="Path 14071" d="m377.469 147.88 1.921 4.6-1.559.8a25.969 25.969 0 0 1-1.261-3.014z" transform="translate(-266.608 -120.758)" style="opacity:.2"/>
        <path data-name="Path 14072" d="M338.887 147.593c.018 2.573.172 5.773.555 9.744h12.326c.149-1.81-.607-10.346 1.229-18.893a1.13 1.13 0 0 0-.931-1.355 28.211 28.211 0 0 0-2.92-.312 45.464 45.464 0 0 0-5.242 0 20.494 20.494 0 0 0-2.1.292 2.8 2.8 0 0 0-2.155 2.056 24.44 24.44 0 0 0-.675 4.8 62.023 62.023 0 0 0-.087 3.668z" transform="translate(-239.928 -112.843)" style="fill:#407bff"/>
        <path data-name="Path 14073" d="M343.006 155.938a8.557 8.557 0 0 1-3.8 1c.023-.377.053-.733.085-1.069.383-.2.75-.385 1.1-.555z" transform="translate(-240.158 -126.018)" style="opacity:.2"/>
        <g data-name="Group 66574" style="opacity:.2">
            <path data-name="Path 14074" d="m100.945 97.794.015 2.967h2.3l-.005-2.967z"/>
            <path data-name="Path 14075" d="m117.741 95.905-2.219.409.823 2.707 2.219-.409z"/>
        </g>
        <path data-name="Path 14076" d="M352.9 101.871c.336 2.269.648 3.577-.228 5.008a2.973 2.973 0 0 1-5.256-.292c-.9-1.886-1.3-5.282.675-6.716a3.008 3.008 0 0 1 4.809 2z" transform="translate(-245.439 -86.33)" style="fill:#7f3e3b"/>
        <path data-name="Path 14077" d="M343.984 98.566c-.856-.377-.774-1.723-.514-2.289-.99.339-2.421.534-2.678-.473s.616-1.329.082-2.19 1.168-1.8 1.962-.584 2.757.672 4.024-.488a1.118 1.118 0 0 1 1.737 1.346s2.774-.178 2.222 1.705-1.332 1.948-1.153 3.288c.123.905.228 2.745-.859 3-1.313.305-4.589-.86-4.823-3.315z" transform="translate(-241.244 -81.366)" style="fill:#263238"/>
        <path data-name="Path 14078" d="M349.9 121.906c-.251.181-.511.374-.777.584l.015.032a3.069 3.069 0 0 0 1.194 1.317c.166-.161.26-.7.569-.692.926.026 2.716-.362 3.014-1.407z" transform="translate(-247.174 -102.251)" style="opacity:.2"/>
        <path data-name="Path 14079" d="M351.428 111.5a2.759 2.759 0 0 1-.222 1.48c-.263.534-.677.193-.838-.464-.146-.584-.184-1.58.2-1.872s.787.195.86.856z" transform="translate(-247.984 -94.337)" style="fill:#7f3e3b"/>
        <path data-name="Path 14080" d="M355.77 207.4s1.936 17.614 3.116 24.213c1.294 7.227 7.992 29.91 7.992 29.91l4.129-.876s-4.611-21.223-5.242-28.377c-.675-7.767-2.044-24.87-2.044-24.87z" transform="translate(-251.882 -162.897)" style="fill:#407bff"/>
        <path data-name="Path 14081" d="M355.77 207.4s1.936 17.614 3.116 24.213c1.294 7.227 7.992 29.91 7.992 29.91l4.129-.876s-4.611-21.223-5.242-28.377c-.642-7.382-.642-7.367-2.044-24.87z" transform="translate(-251.882 -162.897)" style="opacity:.3"/>
        <path data-name="Path 14082" d="M390.649 385.826c-.018 0 .7 1.507.7 1.507l4.658-1-.33-1.408z" transform="translate(-276.576 -288.587)" style="fill:#263238"/>
        <path data-name="Path 14083" d="M358.957 228.84c3 .584 2.246 11.87 1.659 17.672-.712-4.088-1.685-11.993-2.336-17.591a1.019 1.019 0 0 1 .677-.081z" transform="translate(-253.659 -178.059)" style="opacity:.2"/>
        <path data-name="Path 14084" d="M338.361 207.393s-.981 17.229-1 24.263c-.023 7.3 1.606 31.245 1.606 31.245h3.907s1.051-23.51 1.5-30.69c.491-7.829 2.094-24.821 2.094-24.821z" transform="translate(-238.847 -162.89)" style="fill:#407bff"/>
        <path data-name="Path 14085" d="M338.361 207.393s-.981 17.229-1 24.263c-.023 7.3 1.606 31.245 1.606 31.245h3.907s1.051-23.51 1.5-30.69c.491-7.829 2.094-24.821 2.094-24.821z" transform="translate(-238.847 -162.89)" style="opacity:.3"/>
        <path data-name="Path 14086" d="M340.5 392.18c-.018 0 .158 1.621.158 1.621h4.742l.184-1.46z" transform="translate(-241.068 -293.72)" style="fill:#263238"/>
        <path data-name="Path 14087" d="M330.479 126.483c-.467.044-.861.07-1.291.082s-.838.02-1.256.018a23.027 23.027 0 0 1-2.529-.146 19.276 19.276 0 0 1-2.552-.438 12.424 12.424 0 0 1-2.576-.914l-.1-.05a1.521 1.521 0 0 1-.695-2.044 1.586 1.586 0 0 1 .143-.237 8.223 8.223 0 0 1 1.183-1.264 18.1 18.1 0 0 1 1.186-.961c.794-.6 1.606-1.127 2.421-1.641s1.647-.99 2.485-1.46 1.682-.894 2.558-1.3a.876.876 0 0 1 .9 1.478c-.733.564-1.489 1.121-2.222 1.694s-1.46 1.136-2.187 1.714-1.419 1.168-2.082 1.752a10.923 10.923 0 0 0-.932.9 5.983 5.983 0 0 0-.689.841l-.645-2.336a10.7 10.7 0 0 0 1.962.523 20.676 20.676 0 0 0 2.164.251c.739.047 1.486.073 2.237.073h1.127c.374 0 .768-.029 1.1-.047h.038a1.752 1.752 0 0 1 .269 3.484z" transform="translate(-226.08 -98.233)" style="fill:#7f3e3b"/>
        <path data-name="Path 14088" d="m353.76 114.671-1.46.324s-1.954-.242-2.4 1.229l1.168.987 1.787.292a1.349 1.349 0 0 0 .826-.134l.456-.237a.7.7 0 0 0 .374-.552l.108-1.168a.695.695 0 0 0-.859-.742z" transform="translate(-247.726 -97.232)" style="fill:#7f3e3b"/>
        <path data-name="Path 14089" d="M340.616 143.233a10.823 10.823 0 0 1-5.256-.169l1.031-5.5s2.438-.216 3.963-.248c3.921-.093 4.689 4.69.262 5.917z" transform="translate(-237.432 -113.278)" style="fill:#407bff"/>
    </g>
</svg>
