<svg xmlns="http://www.w3.org/2000/svg" width="146.005" height="108.791" viewBox="0 0 146.005 108.791">
    <path data-name="Rectangle 1999" transform="translate(0 95.604)" style="fill:#ebebeb" d="M0 0h146.005v.073H0z"/>
    <path data-name="Rectangle 2000" transform="translate(121.704 100.302)" style="fill:#ebebeb" d="M0 0h9.671v.073H0z"/>
    <path data-name="Rectangle 2001" transform="translate(94.182 101.097)" style="fill:#ebebeb" d="M0 0h2.538v.073H0z"/>
    <path data-name="Rectangle 2002" transform="translate(115.808 97.592)" style="fill:#ebebeb" d="M0 0h5.604v.073H0z"/>
    <path data-name="Rectangle 2003" transform="translate(15.319 98.083)" style="fill:#ebebeb" d="M0 0h12.612v.073H0z"/>
    <path data-name="Rectangle 2004" transform="translate(30.533 98.083)" style="fill:#ebebeb" d="M0 0h1.848v.073H0z"/>
    <path data-name="Rectangle 2005" transform="translate(38.39 99.315)" style="fill:#ebebeb" d="M0 0h27.355v.073H0z"/>
    <path data-name="Path 14013" d="M96.259 137.58H39.874a1.667 1.667 0 0 1-1.664-1.667v-79.26A1.667 1.667 0 0 1 39.874 55h56.385a1.667 1.667 0 0 1 1.667 1.667v79.246a1.667 1.667 0 0 1-1.667 1.667zM39.874 55.058a1.594 1.594 0 0 0-1.591 1.594v79.26a1.594 1.594 0 0 0 1.591 1.594h56.385a1.6 1.6 0 0 0 1.594-1.594V56.653a1.6 1.6 0 0 0-1.594-1.594z" transform="translate(-27.052 -55)" style="fill:#ebebeb"/>
    <path data-name="Path 14014" d="M312.554 137.58h-56.387a1.67 1.67 0 0 1-1.667-1.667v-79.26A1.67 1.67 0 0 1 256.167 55h56.387a1.667 1.667 0 0 1 1.661 1.653v79.26a1.667 1.667 0 0 1-1.661 1.667zm-56.387-82.522a1.6 1.6 0 0 0-1.594 1.594v79.26a1.6 1.6 0 0 0 1.594 1.594h56.387a1.6 1.6 0 0 0 1.594-1.594V56.653a1.6 1.6 0 0 0-1.594-1.594z" transform="translate(-180.184 -55)" style="fill:#ebebeb"/>
    <path data-name="Rectangle 2006" transform="translate(29.578 6.179)" style="fill:#e6e6e6" d="M0 0h85.205v39.865H0z"/>
    <path data-name="Rectangle 2007" transform="translate(30.176 6.179)" style="fill:#f0f0f0" d="M0 0h85.889v39.865H0z"/>
    <path data-name="Rectangle 2008" transform="translate(29.578 46.044)" style="fill:#e6e6e6" d="M0 0h85.205v2.032H0z"/>
    <path data-name="Rectangle 2009" transform="translate(32.314 46.044)" style="fill:#f0f0f0" d="M0 0h85.889v2.032H0z"/>
    <path data-name="Rectangle 2010" transform="rotate(90 53.146 61.124)" style="fill:#fafafa" d="M0 0h36.27v82.294H0z"/>
    <path data-name="Path 14015" d="m139.73 118.59 5-36.27h7.805l-5 36.27z" transform="translate(-98.928 -74.342)" style="fill:#fff"/>
    <path data-name="Path 14016" d="M112.028 119.321a.128.128 0 0 1-.128-.128V86.008a.128.128 0 1 1 .257 0v33.2a.126.126 0 0 1-.129.113z" transform="translate(-79.224 -76.863)" style="fill:#f0f0f0"/>
    <path data-name="Path 14017" d="m172.2 118.59 5-36.27h3.043l-5 36.27z" transform="translate(-121.916 -74.342)" style="fill:#fff"/>
    <path data-name="Rectangle 2011" transform="rotate(90 53.146 61.124)" style="fill:#e6e6e6" d="M0 0h36.27v.228H0z"/>
    <path data-name="Path 14018" d="M191.939 86.722h-85.2l-.166-2.012h85.205z" transform="translate(-75.451 -76.034)" style="opacity:.6;fill:#ebebeb"/>
    <path data-name="Path 14019" d="M191.939 98.012h-85.2L106.57 96h85.205z" transform="translate(-75.451 -84.028)" style="opacity:.6;fill:#ebebeb"/>
    <path data-name="Path 14020" d="M191.939 109.312h-85.2l-.166-2.012h85.205z" transform="translate(-75.451 -92.028)" style="opacity:.6;fill:#ebebeb"/>
    <path data-name="Path 14021" d="M191.939 120.6h-85.2l-.166-2.012h85.205z" transform="translate(-75.451 -100.021)" style="opacity:.6;fill:#ebebeb"/>
    <path data-name="Path 14022" d="M191.939 131.9h-85.2l-.166-2.012h85.205z" transform="translate(-75.451 -108.021)" style="opacity:.6;fill:#ebebeb"/>
    <path data-name="Path 14023" d="M191.939 143.192h-85.2l-.166-2.012h85.205z" transform="translate(-75.451 -116.015)" style="opacity:.6;fill:#ebebeb"/>
    <path data-name="Rectangle 2012" transform="translate(115.189 56.066)" style="fill:#e6e6e6" d="M0 0h13.003v39.538H0z"/>
    <path data-name="Path 14024" d="M418.281 369.168h3.472v-5.458h-7.113z" transform="translate(-293.561 -273.564)" style="fill:#fafafa"/>
    <path data-name="Rectangle 2013" transform="translate(79.736 56.066)" style="fill:#e6e6e6" d="M0 0h13.003v39.538H0z"/>
    <path data-name="Rectangle 2014" transform="translate(89.708 56.066)" style="fill:#fafafa" d="M0 0h38.484v37.66H0z"/>
    <path data-name="Path 14025" d="M310.682 369.168h-3.472v-5.458h7.113z" transform="translate(-217.502 -273.564)" style="fill:#fafafa"/>
    <path data-name="Rectangle 2015" transform="translate(92.401 70.1)" style="fill:#f0f0f0" d="M0 0h33.096v9.423H0z"/>
    <path data-name="Rectangle 2016" transform="translate(92.401 81.538)" style="fill:#f0f0f0" d="M0 0h33.096v9.423H0z"/>
    <path data-name="Path 14026" d="M334.24 292.26h22.707v.458a1.364 1.364 0 0 1-1.364 1.364h-19.976a1.364 1.364 0 0 1-1.364-1.364v-.458z" transform="translate(-236.639 -222.978)" style="fill:#fafafa"/>
    <path data-name="Rectangle 2017" transform="translate(92.401 58.659)" style="fill:#f0f0f0" d="M0 0h33.096v9.423H0z"/>
    <path data-name="Path 14027" d="M334.24 253.09h22.707v.458a1.364 1.364 0 0 1-1.364 1.364h-19.976a1.364 1.364 0 0 1-1.364-1.364v-.458z" transform="translate(-236.639 -195.246)" style="fill:#fafafa"/>
    <path data-name="Path 14028" d="M334.24 331.43h22.707v.458a1.364 1.364 0 0 1-1.364 1.364h-19.976a1.364 1.364 0 0 1-1.364-1.364v-.458z" transform="translate(-236.639 -250.71)" style="fill:#fafafa"/>
    <path data-name="Path 14029" d="M44.395 170.19c.724-2.082 6.424.748 8.76 4.193a17.8 17.8 0 0 1 2.92 8.036c-.053-3.755-.111-7.788-.169-11.6-.47-.949-1.542-3.139-2.31-4.874-2.57-5.788-8.679-7.943-10.8-11.6-2.765-4.789-2.748-11.972-.394-14.56 2.044-2.254 8.819 12.974 9.584 14.676a45.02 45.02 0 0 1 3.878 14.4c-.055-3.577-.108-6.859-.152-9.394-.143-8.264-.324-10.921-.406-11.739-.292-.4-.616-.876-.812-1.115-1.638-2.111-5.277-4.622-7.093-7.692-2.654-4.479-2.225-9.841-.365-11.838 1.962-2.088 5.417 2.835 7.23 7.735s1.045 9.566 1.559 13.628c.108.794.216 3.819.321 8.016.555-4.514 1.659-7.54 3.7-10.358 2.517-3.466 4.69-7.686 6.763-7.14s.958 6.132-.683 10.051c-1.46 3.49-8.667 6.973-9.73 9.779.126 5.688.237 12.892.318 19.6.567-3.466.175-3.755 2.505-9.052 1.384-3.154 7.058-7.04 7.735-4.874s-.353 6.261-2.494 9.128c-1.729 2.316-5.548 2.313-6.45 3.746-.207.336-.876 1.621-1.282 2.357.091 8.191.134 15.418.088 17.883l-.374.026c.02-.637-.026-4.8-.1-10.317-.932-2.92-7.2-4.643-9.134-7.694-2.026-3.187-3.483-6.913-2.613-9.407z" transform="translate(-28.796 -105.694)" style="fill:#e6e6e6"/>
    <path data-name="Path 14030" d="M68.219 369.507H80.25a1.384 1.384 0 0 0 1.35-1.107l.853-4.211H66l.876 4.211a1.384 1.384 0 0 0 1.343 1.107z" transform="translate(-46.727 -273.904)" style="fill:#f0f0f0"/>
    <path data-name="Path 14031" d="M62.052 358.318h17.135a.809.809 0 0 0 .8-.718l.35-3.113a.809.809 0 0 0-.8-.9H61.7a.809.809 0 0 0-.8.9l.35 3.113a.809.809 0 0 0 .8.718z" transform="translate(-43.112 -266.399)" style="fill:#f0f0f0"/>
    <path data-name="Rectangle 2018" transform="translate(41.649 76.688)" style="fill:#e0e0e0" d="M0 0h10.282v18.916H0z"/>
    <path data-name="Path 14032" d="M175.343 320.168h-34.425L137.3 294.5h34.425z" transform="translate(-97.207 -224.564)" style="fill:#e6e6e6"/>
    <path data-name="Path 14033" d="M183.686 320.168h-38.081L141.99 294.5h38.078z" transform="translate(-100.528 -224.564)" style="fill:#f0f0f0"/>
    <path data-name="Path 14034" d="M159.746 325.883 156.7 308.24h30.057l3.046 17.643z" transform="translate(-110.942 -234.292)" style="fill:#fff"/>
    <path data-name="Path 14035" d="M186.594 325.883 176.38 308.24h3.2l10.22 17.643z" transform="translate(-124.875 -234.292)" style="fill:#fafafa"/>
    <path data-name="Path 14036" d="M202.217 325.883 192 308.24h5.466l10.214 17.643z" transform="translate(-135.934 -234.292)" style="fill:#fafafa"/>
    <g transform="translate(16.385 102.18)">
        <ellipse cx="56.618" cy="3.306" rx="56.618" ry="3.306" style="fill:#f5f5f5"/>
    </g>
    <g data-name="Group 66677">
        <g data-name="Group 66647">
            <g data-name="Group 66646">
                <g data-name="Group 66641">
                    <g data-name="Group 66589">
                        <g data-name="Group 66588">
                            <g data-name="Group 66584">
                                <g data-name="Group 66583">
                                    <g data-name="Group 66582">
                                        <path data-name="Path 14098" d="m193.236 143.658-26.994-.016a5.88 5.88 0 0 1-5.877-5.881l.013-67.675a5.88 5.88 0 0 1 5.883-5.879l26.994.016a5.88 5.88 0 0 1 5.877 5.881l-.013 67.675a5.88 5.88 0 0 1-5.883 5.879z" transform="translate(-105.886 -51.131)" style="fill:#263238"/>
                                    </g>
                                </g>
                            </g>
                            <g data-name="Group 66587">
                                <g data-name="Group 66586">
                                    <g data-name="Group 66585">
                                        <path data-name="Path 14099" d="M200.576 76.451h-5.234a1.3 1.3 0 0 0-1.271 1.328v.949a1.3 1.3 0 0 1-1.271 1.328l-10.2-.006a1.3 1.3 0 0 1-1.271-1.329v-.949a1.3 1.3 0 0 0-1.271-1.329H173.636a4.118 4.118 0 0 0-4.121 4.117l-.013 66.056a4.118 4.118 0 0 0 4.116 4.119l26.94.016a4.118 4.118 0 0 0 4.12-4.117l.013-66.056a4.118 4.118 0 0 0-4.115-4.127z" transform="translate(-113.234 -60.965)" style="fill:#fff"/>
                                    </g>
                                </g>
                            </g>
                        </g>
                    </g>
                    <g data-name="Group 66599">
                        <g data-name="Group 66592">
                            <g data-name="Group 66591">
                                <g data-name="Group 66590">
                                    <path data-name="Path 14100" d="M317.75 103.837c0 .018-.68.038-1.52.045s-1.52 0-1.521-.02.68-.038 1.52-.045 1.521.002 1.521.02z" transform="translate(-230.014 -82.985)" style="fill:#263238"/>
                                </g>
                            </g>
                        </g>
                        <g data-name="Group 66595">
                            <g data-name="Group 66594">
                                <g data-name="Group 66593">
                                    <path data-name="Path 14101" d="M317.783 107.811c0 .018-.681.038-1.52.045s-1.52 0-1.521-.02.68-.038 1.52-.045 1.52.002 1.521.02z" transform="translate(-230.041 -86.181)" style="fill:#263238"/>
                                </g>
                            </g>
                        </g>
                        <g data-name="Group 66598">
                            <g data-name="Group 66597">
                                <g data-name="Group 66596">
                                    <path data-name="Path 14102" d="M317.815 111.784c0 .018-.68.038-1.52.045s-1.521 0-1.521-.019.68-.038 1.52-.045 1.521.002 1.521.019z" transform="translate(-230.067 -89.377)" style="fill:#263238"/>
                                </g>
                            </g>
                        </g>
                    </g>
                    <g data-name="Group 66602">
                        <g data-name="Group 66601">
                            <g data-name="Group 66600">
                                <path data-name="Path 14103" d="M183.852 102.574a.625.625 0 0 1 .08-.005l.222-.007.818-.02-.023.023c0-.181-.006-.38-.01-.593 0-.11-.009-.214 0-.342a.315.315 0 0 1 .275-.252c.132 0 .248-.009.391 0a.318.318 0 0 1 .268.316c0 .277.006.566.01.865l-.038-.037 1.032-.011-.039.04c0-.416-.008-.846-.012-1.286v-.328a.334.334 0 0 0-.145-.244l-.451-.445-.435-.43-.211-.208c-.072-.07-.129-.142-.213-.159a.278.278 0 0 0-.237.045c-.062.053-.129.128-.192.189l-.37.374c-.233.242-.476.463-.652.672a.73.73 0 0 0-.052.385v1.325a1.336 1.336 0 0 1-.005.135.985.985 0 0 1-.007-.124c0-.1-.006-.221-.01-.369l-.013-.59q0-.175-.007-.371v-.2a.429.429 0 0 1 .057-.216c.191-.234.419-.441.653-.69l.367-.376c.066-.065.12-.13.2-.2a.351.351 0 0 1 .3-.059.557.557 0 0 1 .248.177l.212.208.437.428.452.444a.86.86 0 0 1 .115.125.338.338 0 0 1 .054.174v.329c0 .44.007.87.01 1.286v.04h-.04l-1.032.007h-.038v-.903a.249.249 0 0 0-.208-.251c-.119-.006-.259 0-.374 0a.253.253 0 0 0-.223.2c-.01.1 0 .225 0 .33v.616h-.023l-.832-.006h-.217a.407.407 0 0 1-.092-.011z" transform="translate(-124.742 -79.407)" style="fill:#263238"/>
                            </g>
                        </g>
                    </g>
                    <g data-name="Group 66621">
                        <g data-name="Group 66607">
                            <g data-name="Group 66606">
                                <g data-name="Group 66603">
                                    <path data-name="Path 14104" d="M245.409 379.2a1.5 1.5 0 0 1-.283.02l-.771.016c-.651.009-1.551.015-2.545.015s-1.894-.006-2.545-.015l-.771-.016a.142.142 0 1 1 0-.04l.771-.016c.651-.009 1.551-.015 2.545-.015s1.893.006 2.545.015l.771.016a1.506 1.506 0 0 1 .283.02z" transform="translate(-168.492 -304.414)" style="fill:#455a64"/>
                                </g>
                                <g data-name="Group 66604">
                                    <path data-name="Path 14105" d="M256.723 388.243c0 .028-4.144.051-9.256.051s-9.256-.023-9.256-.051 4.143-.051 9.256-.051 9.256.023 9.256.051z" transform="translate(-168.492 -311.689)" style="fill:#455a64"/>
                                </g>
                                <g data-name="Group 66605">
                                    <path data-name="Path 14106" d="M250.938 396.752c0 .028-2.849.051-6.363.051s-6.364-.023-6.364-.051 2.849-.051 6.364-.051 6.363.023 6.363.051z" transform="translate(-168.492 -318.532)" style="fill:#455a64"/>
                                </g>
                            </g>
                        </g>
                        <g data-name="Group 66608">
                            <path data-name="Path 14107" d="m330.028 406.616-.575-.577-.548.546v-1.651h1.123zm-.575-.649.018.018.506.508v-1.507h-1.021v1.478z" transform="translate(-241.431 -325.154)" style="fill:#263238"/>
                        </g>
                        <g data-name="Group 66609">
                            <path data-name="Path 14108" d="m252.16 407.754-.2-.09a.556.556 0 1 1 .3-.488.562.562 0 0 1-.14.376zm-.474-1.1a.525.525 0 1 0 .008 1.05.542.542 0 0 0 .253-.08h.008l.15.067-.034-.147.007-.007a.524.524 0 0 0-.392-.878z" transform="translate(-178.879 -326.506)" style="fill:#263238"/>
                        </g>
                        <g data-name="Group 66610">
                            <path data-name="Path 14109" d="m260.326 407.984-.233-.568-.436-.4 1.058-.008zm-.57-.927.372.341.2.484.332-.832z" transform="translate(-185.74 -326.823)" style="fill:#263238"/>
                        </g>
                        <g data-name="Group 66611">
                            <path data-name="Rectangle 2019" transform="rotate(-33.054 172.94 -85.05)" style="fill:#263238" d="M0 0h.688v.039H0z"/>
                        </g>
                        <g data-name="Group 66612">
                            <path data-name="Path 14110" d="M242.578 406.579a.725.725 0 0 1-.961-.258.338.338 0 0 0-.33.268.442.442 0 0 0 .08.319 1.313 1.313 0 0 0 .232.243l.345.306c.116-.106.215-.206.331-.312a1.3 1.3 0 0 0 .228-.247.443.443 0 0 0 .075-.319z" transform="translate(-170.961 -326.265)" style="fill:#e8505b"/>
                        </g>
                        <g data-name="Group 66613">
                            <path data-name="Path 14111" d="M211.835 377.7v-.72c0-.472 0-1.167-.008-2.067 0-1.8-.011-4.417-.018-7.7l.034.034-31.307.017.051-.051V377.7l-.049-.049 22.4.023 6.54.014 1.755.006h.612-.599l-1.744.006-6.529.014-22.437.023h-.049V367.162h.053l31.307.017h.034v.034l-.018 7.721c0 .9-.006 1.589-.008 2.059v.53c-.018.114-.02.177-.02.177z" transform="translate(-122.059 -294.773)" style="fill:#263238"/>
                        </g>
                        <g data-name="Group 66620">
                            <g data-name="Group 66617">
                                <g data-name="Group 66616">
                                    <g data-name="Group 66615">
                                        <path data-name="Rectangle 2020" transform="rotate(-89.66 70.67 10.515)" style="fill:#ebebeb" d="M0 0h6.933v8.673H0z"/>
                                        <g data-name="Group 66614">
                                            <path data-name="Path 14112" d="M195.683 376.229h-2.417l-6.255-.013.046-.045-.034 6.933-.049-.051h1.194l1.169.007 2.25.014 4.062.029-.043.042.051-5.022.019-1.408c0-.159.005-.283.007-.373s.005-.131.005-.131v1.887c0 1.219 0 2.956-.007 5.049v.042h-.043l-4.061-.017-2.25-.011-1.169-.006h-1.194a.64.64 0 0 1-.052-.052l.045-6.933v-.046h.046l6.284.059 1.768.022.464.008h.118a.167.167 0 0 1 .046.016z" transform="translate(-127.242 -301.992)" style="fill:#263238"/>
                                        </g>
                                    </g>
                                </g>
                            </g>
                            <path data-name="Rectangle 2021" transform="rotate(-89.66 70.601 10.147)" style="fill:#e0e0e0" d="M0 0h6.061v8.063H0z"/>
                            <path data-name="Path 14113" d="m188.725 394.154 2.838-3.751 1.731 2.367 1.19-1.253 2.3 2.683z" transform="translate(-128.693 -313.468)" style="fill:#f5f5f5"/>
                            <g data-name="Group 66619">
                                <g data-name="Group 66618">
                                    <path data-name="Path 14114" d="M210.711 385.5a.635.635 0 1 1-.631-.638.635.635 0 0 1 .631.638z" transform="translate(-145.354 -309.007)" style="fill:#f5f5f5"/>
                                </g>
                            </g>
                        </g>
                    </g>
                    <g data-name="Group 66636">
                        <g data-name="Group 66631" transform="translate(59.673 27.847)">
                            <g data-name="Group 66624">
                                <g data-name="Group 66623">
                                    <g data-name="Group 66622">
                                        <path data-name="Path 14115" d="M224.642 146.663a.32.32 0 0 1-.093.01l-.265.01-.977.016c-.825.009-1.964.015-3.223.015s-2.4-.006-3.223-.015l-.977-.016-.266-.01a.32.32 0 0 1-.093-.01.326.326 0 0 1 .093-.01l.266-.01.977-.016c.825-.009 1.964-.015 3.223-.015s2.4.006 3.223.015l.977.016.265.01a.326.326 0 0 1 .093.01z" transform="translate(-209.922 -145.25)" style="fill:#263238"/>
                                    </g>
                                </g>
                            </g>
                            <g data-name="Group 66630">
                                <g data-name="Group 66625">
                                    <path data-name="Path 14116" d="m320.678 332.385-.855-.857-.814.812v-2.454h1.669zm-.854-.964.027.026.753.755v-2.239h-1.518v2.2z" transform="translate(-293.146 -292.644)" style="fill:#263238"/>
                                </g>
                                <g data-name="Group 66626">
                                    <path data-name="Path 14117" d="m208.312 332.132-.4-.178a1.094 1.094 0 1 1 .584-.961 1.106 1.106 0 0 1-.276.74zm-.934-2.164a1.034 1.034 0 1 0 .017 2.067 1.066 1.066 0 0 0 .5-.157l.016-.009.294.131-.067-.289.013-.015a1.033 1.033 0 0 0-.772-1.729z" transform="translate(-202.483 -292.649)" style="fill:#263238"/>
                                </g>
                                <g data-name="Group 66627">
                                    <path data-name="Path 14118" d="m224.386 332.585-.458-1.118-.859-.782 2.083-.017zm-1.122-1.826.731.671.39.952.654-1.638z" transform="translate(-215.988 -293.273)" style="fill:#263238"/>
                                </g>
                                <g data-name="Group 66628">
                                    <path data-name="Rectangle 2022" transform="rotate(-33.04 68.307 5.603)" style="fill:#263238" d="M0 0h1.355v.076H0z"/>
                                </g>
                                <g data-name="Group 66629">
                                    <path data-name="Path 14119" d="M189.45 329.818a1.426 1.426 0 0 1-1.892-.507.666.666 0 0 0-.649.528.869.869 0 0 0 .158.627 2.574 2.574 0 0 0 .456.478c.232.2.446.4.678.6.229-.209.423-.4.652-.613a2.582 2.582 0 0 0 .448-.486.87.87 0 0 0 .149-.627z" transform="translate(-186.898 -292.174)" style="fill:#004eff"/>
                                </g>
                            </g>
                            <circle data-name="Ellipse 919" cx="1.413" cy="1.413" r="1.413" transform="translate(.949)" style="fill:#ebebeb"/>
                        </g>
                        <g data-name="Group 66635">
                            <g data-name="Group 66632">
                                <path data-name="Path 14120" d="M216.1 301.045c0 .028-5.924.051-13.23.051s-13.231-.023-13.231-.051 5.923-.051 13.231-.051 13.23.023 13.23.051z" transform="translate(-129.433 -241.562)" style="fill:#455a64"/>
                            </g>
                            <g data-name="Group 66633">
                                <path data-name="Path 14121" d="M216.1 289.79c0 .028-5.924.051-13.23.051s-13.231-.023-13.231-.051 5.923-.051 13.231-.051 13.23.023 13.23.051z" transform="translate(-129.433 -232.51)" style="fill:#455a64"/>
                            </g>
                            <g data-name="Group 66634">
                                <path data-name="Path 14122" d="M204.046 312.451c0 .028-3.225.051-7.2.051s-7.2-.023-7.2-.051 3.224-.051 7.2-.051 7.2.023 7.2.051z" transform="translate(-129.433 -250.735)" style="fill:#455a64"/>
                            </g>
                        </g>
                    </g>
                    <g data-name="Group 66640">
                        <g data-name="Group 66637">
                            <path data-name="Path 14123" d="M249.516 432.936a.562.562 0 1 1-.56-.573.566.566 0 0 1 .56.573z" transform="translate(-176.68 -347.213)" style="fill:#263238"/>
                        </g>
                        <g data-name="Group 66638">
                            <path data-name="Path 14124" d="M258.414 432.977a.562.562 0 1 1-.56-.573.566.566 0 0 1 .56.573z" transform="translate(-183.836 -347.246)" style="fill:#263238"/>
                        </g>
                        <g data-name="Group 66639">
                            <path data-name="Path 14125" d="M267.312 433.018a.562.562 0 1 1-.56-.573.566.566 0 0 1 .56.573z" transform="translate(-190.992 -347.279)" style="fill:#263238"/>
                        </g>
                    </g>
                </g>
                <g data-name="Group 66644">
                    <path data-name="Rectangle 2023" style="fill:#e0e0e0" d="M0 0h31.309v19.147H0z" transform="translate(58.654 32.055)"/>
                    <path data-name="Path 14126" d="m196.457 209.645 8.972-12.008 5.562 7.51 3.77-4.017 7.394 8.508z" transform="translate(-134.913 -158.44)" style="fill:#f5f5f5"/>
                    <g data-name="Group 66643">
                        <g data-name="Group 66642">
                            <path data-name="Path 14127" d="M266.114 181.8a2.023 2.023 0 1 1-2.024-2.023 2.023 2.023 0 0 1 2.024 2.023z" transform="translate(-187.678 -144.079)" style="fill:#f5f5f5"/>
                        </g>
                    </g>
                </g>
                <g data-name="Group 66645">
                    <path data-name="Path 14128" d="m212.363 171.716-.046-43.312.046.046h-31.305l.051-.051c0 16.2-.007 31.188-.01 43.312l-.041-.042 31.309.042-31.309.042h-.042v-.042c0-12.124-.006-27.114-.01-43.312v-.051h31.406v.046l-.023 31.279-.012 8.879c0 1.027 0 1.816-.005 2.35v.6l-.009.214z" transform="translate(-122.484 -102.719)" style="fill:#263238"/>
                </g>
            </g>
        </g>
        <g data-name="Group 66674">
            <g data-name="Group 66668">
                <g data-name="Group 66666">
                    <g data-name="Group 66648">
                        <path data-name="Path 14129" d="m213.936 333.637.693-2.327c.121-.5.281-1.1.5-1.779a4.8 4.8 0 0 1 1.146-1.714 8.441 8.441 0 0 1 1.519-1.106c.043-.028.091-.067.132-.089a.749.749 0 0 0 .231-.2c.41-.443.016-1.129-.815-1.063-.626.049-1.647.228-3.308 1.941l-.063.074c-.872 1.133-1.69-2.1-1.838-3.3a1.261 1.261 0 0 0-1.7-.978l-4.045 1.892a1.888 1.888 0 0 0-1.181.04 1.2 1.2 0 0 0-.771 1.427L206.07 333l-4.818 16.032h10.385z" transform="translate(-138.768 -259.267)" style="fill:#ffbe9d"/>
                    </g>
                    <g data-name="Group 66664">
                        <g data-name="Group 66656">
                            <g data-name="Group 66650">
                                <g data-name="Group 66649">
                                    <path data-name="Path 14130" d="m231.921 292.785-3.21 6.291-1.605-.446-8.069 6.564a1.634 1.634 0 0 1-2.27-.2l-3.072-3.57s6.194-2.669 7.34-4.877-.178-2.71-.178-2.71l2.915-3.313z" transform="translate(-148.775 -233.14)" style="fill:#2d56b2"/>
                                </g>
                            </g>
                            <g data-name="Group 66651">
                                <path data-name="Path 14131" d="M132.3 145.254s-4.7-1.039-11.312-7.4-9.72-14.8-10.53-14.762-4.344-1.6-11.066 13.023-4.074 18.018-2.737 17.991 10.42-2.559 16.093-1.914 12.965 3.6 12.965 3.6z" transform="translate(-53.323 -98.459)" style="fill:#407bff"/>
                            </g>
                            <g data-name="Group 66652">
                                <path data-name="Path 14132" d="m264.3 233.094-1.6 3.048-.718 1.365a3.978 3.978 0 0 1-5.186 1.762l-10.072-3.509 5.866-13.391 10.063 5.363a3.979 3.979 0 0 1 1.647 5.362z" transform="translate(-175.339 -178.329)" style="fill:#2d56b2"/>
                            </g>
                            <g data-name="Group 66654">
                                <path data-name="Path 14134" d="M103.557 137.759c-3.577 7.921-5.067 14.979-3.326 15.766s6.051-5 9.629-12.919 5.067-14.979 3.326-15.765-6.052 4.997-9.629 12.918z" transform="translate(-56.939 -99.837)" style="fill:#2d56b2"/>
                            </g>
                        </g>
                        <g data-name="Group 66657">
                            <path data-name="Path 14136" d="m329.721 282.934-2.73-.857 1.689-3.212 2.047 1.273z" transform="translate(-239.891 -223.765)" style="fill:#407bff"/>
                        </g>
                        <g data-name="Group 66658" style="opacity:.6">
                            <path data-name="Path 14137" d="M88.789 55.1 87.1 58.312l.561.176 1.373-3.236z"/>
                        </g>
                        <g data-name="Group 66659">
                            <path data-name="Path 14138" d="M301.6 271.579a30.407 30.407 0 0 1-5.942-2.685 30.422 30.422 0 0 1 5.942 2.685z" transform="translate(-214.691 -215.738)" style="fill:#407bff"/>
                        </g>
                        <g data-name="Group 66660">
                            <path data-name="Path 14139" d="M308.306 262.009a25.424 25.424 0 0 1-5.353-2.636 25.515 25.515 0 0 1 5.353 2.636z" transform="translate(-220.558 -208.082)" style="fill:#407bff"/>
                        </g>
                        <g data-name="Group 66661">
                            <path data-name="Path 14140" d="M298.347 282.967c-.014.047-.339-.028-.856-.188-.258-.08-.565-.181-.9-.3s-.686-.3-1.061-.468a11.583 11.583 0 0 1-2.6-1.453 14.089 14.089 0 0 1 2.743 1.134c.371.168.716.353 1.04.489s.618.255.862.363c.489.218.786.376.772.423z" transform="translate(-212.498 -225.12)" style="fill:#407bff"/>
                        </g>
                        <g data-name="Group 66662">
                            <path data-name="Path 14141" d="M128.86 179.743s-4.084-2.533-6.319 2.986 2.063 6.426 2.063 6.426a36.765 36.765 0 0 0 4.256-9.412z" transform="translate(-74.949 -143.582)" style="fill:#407bff"/>
                        </g>
                        <g data-name="Group 66663" style="opacity:.5">
                            <path data-name="Path 14142" d="M58.256 29.585a6.15 6.15 0 0 1-.16 1.054c-.129.674-.312 1.653-.574 2.855l-.564 1.931-.317 1.076-.167.562c-.061.189-.141.374-.212.564l-.923 2.381-.243.625c-.079.211-.192.409-.287.617l-.607 1.252-.609 1.251c-.1.2-.191.414-.307.607l-.341.577-1.3 2.2c-.106.174-.2.35-.313.515l-.339.48-.65.916-1.171 1.639c-.781.946-1.436 1.693-1.886 2.211a6.2 6.2 0 0 1-.73.778 6.225 6.225 0 0 1 .625-.865l1.8-2.281 1.127-1.652.63-.917.33-.479c.107-.165.2-.342.3-.515l1.275-2.193.336-.575c.115-.192.2-.4.3-.6l.6-1.243.6-1.242c.1-.206.208-.4.287-.612l.244-.619.935-2.357c.073-.189.154-.371.217-.558l.173-.556.332-1.064.6-1.909.68-2.819a6.306 6.306 0 0 1 .309-1.035z"/>
                        </g>
                    </g>
                    <g data-name="Group 66665" style="opacity:.4">
                        <path data-name="Path 14143" d="M218.693 320.978a7.953 7.953 0 0 0 1.3 1.9 2.685 2.685 0 0 0 2.077.846 1.643 1.643 0 0 0 1.5-1.488.962.962 0 0 0 1.239-.219 2.168 2.168 0 0 0 .441-1.286 1.213 1.213 0 0 0 1.532-.415 1.98 1.98 0 0 0 .193-1.675 5.866 5.866 0 0 0-.8-1.54 2.13 2.13 0 0 0 1.139-.117.734.734 0 0 0 .377-.962.958.958 0 0 0-.561-.358 3.625 3.625 0 0 0-1.657-.268c-.146 0 .252 1.659-3.7 3.927a33.182 33.182 0 0 1-3.08 1.655z" transform="translate(-152.795 -253.134)" style="opacity:.481"/>
                    </g>
                </g>
                <g data-name="Group 66667">
                    <path data-name="Path 14144" d="M247.635 355.813c0 .018-.265-.032-.691-.021a3.909 3.909 0 0 0-2.9 1.391c-.276.325-.4.561-.417.552a.6.6 0 0 1 .077-.171 3.128 3.128 0 0 1 .284-.426 3.7 3.7 0 0 1 2.957-1.418 3.147 3.147 0 0 1 .51.046.6.6 0 0 1 .18.047z" transform="translate(-172.845 -285.574)" style="fill:#eb996e"/>
                </g>
                <path data-name="Path 14145" d="M220.008 324.313c.636.611 1.071 1.286 1.738 1.9.3.28.774.809 1.181.88s.667.016.828-.363c.13-.308-.1-.728-.265-.981-.425-.667-.831-1.188-1.15-1.706-.149-.243.044-.293.114-.181.306.317.763.592 1.037.938.375.473.444 1.1 1.426.9a.885.885 0 0 0 .365-.152.982.982 0 0 0 .23-1.17 3.2 3.2 0 0 0-.547-.828 2.438 2.438 0 0 0 1.54 1.023.916.916 0 0 0 .931-.5 1.214 1.214 0 0 0-.368-1.228 12.787 12.787 0 0 0-1.67-1.706 1.27 1.27 0 0 0-.812-.3 1.183 1.183 0 0 0-.987.362 1.335 1.335 0 0 0-.267 1.023 1.7 1.7 0 0 0-1.556.02 2.2 2.2 0 0 0-.865 1.243z" transform="translate(-153.852 -257.521)" style="fill:#ffbe9d"/>
                <path data-name="Path 14146" d="M242.445 312.213a1.033 1.033 0 0 1-.122-1.167c.147-.287.332-.567.519-.63.82-.277 4.405.343 4.373 1.139-.033.817-.294 1.176-2.24.9-.342-.049-.879-.117-.879-.117l-.469.7z" transform="translate(-171.7 -249.085)" style="fill:#ffbe9d"/>
            </g>
            <g data-name="Group 66669">
                <path data-name="Path 14147" d="M238.616 329.522a4.706 4.706 0 0 0-1.975-1.791 1.146 1.146 0 0 1 .379.134 3.4 3.4 0 0 1 1.426 1.292 1.146 1.146 0 0 1 .17.365z" transform="translate(-167.229 -263.063)" style="fill:#eb996e"/>
            </g>
            <g data-name="Group 66670">
                <path data-name="Path 14148" d="M244.958 321.526c-.018.017-.255-.176-.577-.374a4.048 4.048 0 0 0-.421-.232c-.111-.052-.184-.066-.184-.082s.084-.023.209.014a1.927 1.927 0 0 1 .449.213 1.387 1.387 0 0 1 .524.461z" transform="translate(-172.967 -257.512)" style="fill:#eb996e"/>
            </g>
            <g data-name="Group 66671">
                <path data-name="Path 14149" d="M247.7 318.68a1.548 1.548 0 0 1-.69-.078 1.263 1.263 0 0 1-.442-.232c-.1-.084-.139-.154-.13-.162a2.892 2.892 0 0 0 .6.3 5.156 5.156 0 0 1 .662.172z" transform="translate(-175.105 -255.406)" style="fill:#eb996e"/>
            </g>
            <g data-name="Group 66672">
                <path data-name="Path 14150" d="M223.39 334.582a2.5 2.5 0 0 1-.327-.425 3.855 3.855 0 0 0-.837-.951 1.687 1.687 0 0 0-1.185-.314 2.157 2.157 0 0 0-.5.159s.034-.041.114-.09a1.116 1.116 0 0 1 .373-.139 1.665 1.665 0 0 1 1.256.3 3.406 3.406 0 0 1 .837.994 3.184 3.184 0 0 1 .269.466z" transform="translate(-154.282 -267.138)" style="fill:#eb996e"/>
            </g>
            <g data-name="Group 66673">
                <path data-name="Path 14151" d="M237.016 382.386a21.492 21.492 0 0 1-2.942.32 21.492 21.492 0 0 1 2.942-.32z" transform="translate(-165.165 -307.014)" style="fill:#eb996e"/>
            </g>
        </g>
    </g>
</svg>
