<svg xmlns="http://www.w3.org/2000/svg" width="21.49" height="15.679" viewBox="0 0 21.49 15.679">
    <g data-name="Group 66559">
        <path data-name="Path 14012" d="M687.453 930.75c-1.216 0-2.4 0-3.532-.009a2.042 2.042 0 0 1-2-2.007v-.106a3.361 3.361 0 0 1 0-.4.366.366 0 0 0-.065-.29.357.357 0 0 0-.275-.091h-.019c-.34.006-.714.009-1.176.009h-1.352a2.049 2.049 0 0 1-2.177-2.189c0-.171 0-.345-.007-.513a7.677 7.677 0 0 1 .041-1.253 3.423 3.423 0 0 1 1.933-2.681.264.264 0 0 0 .136-.419 2.292 2.292 0 0 1 .191-2.59 2.225 2.225 0 0 1 1.845-.972 2.8 2.8 0 0 1 .586.065 2.4 2.4 0 0 1 1.585 3.531.283.283 0 0 0-.047.233.266.266 0 0 0 .166.147 2.329 2.329 0 0 1 .585.354.356.356 0 0 0 .224.094.34.34 0 0 0 .2-.071 3.391 3.391 0 0 1 .533-.287c.07-.033.141-.065.21-.1l.145-.072-.11-.119a3.574 3.574 0 0 1-.979-2.616 3.5 3.5 0 0 1 1.158-2.435 3.539 3.539 0 0 1 2.343-.892 3.465 3.465 0 0 1 2.384.945 3.524 3.524 0 0 1 .118 4.995l-.109.118.144.072.2.1a4.895 4.895 0 0 1 .619.335.232.232 0 0 0 .13.043.262.262 0 0 0 .172-.077l.017-.014a2.33 2.33 0 0 1 .544-.339.341.341 0 0 0 .217-.181.354.354 0 0 0-.057-.286 2.371 2.371 0 0 1-.068-2.143 2.343 2.343 0 0 1 1.648-1.332 2.9 2.9 0 0 1 .6-.067 2.238 2.238 0 0 1 1.842.95 2.282 2.282 0 0 1 .219 2.586c-.127.251-.042.356.158.462a3.4 3.4 0 0 1 1.928 3.027l.007.155a8.815 8.815 0 0 1-.037 1.738 2 2 0 0 1-1.954 1.694c-.37.006-.763.008-1.2.008-.53 0-1.058 0-1.553-.008h-.009a.268.268 0 0 0-.311.318v.108a3.231 3.231 0 0 1-.072.957 2.032 2.032 0 0 1-1.917 1.509c-1.342.003-2.588.006-3.802.006zm2.164-1.208h1.541a.839.839 0 0 0 .89-.856v-.564c0-.808.01-1.643-.007-2.465a3.732 3.732 0 0 0-3.211-3.548 7.122 7.122 0 0 0-.923-.05c-.169 0-.341 0-.507.006s-.335.006-.5.006a3.737 3.737 0 0 0-3.771 3.768v2.756a.853.853 0 0 0 .959.948h5.529zm-8.585-2.9c.212 0 .385 0 .544.009h.036a.326.326 0 0 0 .241-.081.369.369 0 0 0 .074-.281 6.368 6.368 0 0 1 .058-1.281 4.824 4.824 0 0 1 .994-2.245.233.233 0 0 0-.091-.406 2.017 2.017 0 0 0-.694-.25 9.533 9.533 0 0 0-1.134-.069 8.941 8.941 0 0 0-.987.054 2.2 2.2 0 0 0-1.99 2.02 10.437 10.437 0 0 0-.023 1.184c0 .151.005.3.006.452a.843.843 0 0 0 .9.9h1.691zm13.232-4.6c-.3 0-.61.014-.907.028l-.223.01a1.785 1.785 0 0 0-1 .385l-.1.076.079.1a5.09 5.09 0 0 1 .942 1.759 6.216 6.216 0 0 1 .2 1.949.293.293 0 0 0 .061.231.267.267 0 0 0 .2.069h2.759a.83.83 0 0 0 .836-.838c.006-.481.013-1.027 0-1.562a2.246 2.246 0 0 0-1.878-2.133 6.381 6.381 0 0 0-.969-.067zm-6.675-5.768a2.29 2.29 0 1 0 0 4.58h.012a2.29 2.29 0 0 0-.005-4.58h-.006zm6.5 2.17a1.207 1.207 0 0 0-1.2 1.2 1.211 1.211 0 0 0 1.187 1.21h.016a1.208 1.208 0 0 0 1.207-1.2 1.209 1.209 0 0 0-1.211-1.21zm-13.018 0a1.2 1.2 0 1 0 .006 0z" transform="translate(-676.849 -915.071)" style="fill:#fff"/>
    </g>
</svg>
